<svg data-v-423bf9ae="" xmlns="http://www.w3.org/2000/svg" viewBox="0 0 214.50336570840554 60" class="font"><!----><!----><!----><g data-v-423bf9ae="" id="210676f5-5e93-4bfd-8e25-fe596e67cb37" fill="black" transform="matrix(4.480956141520432,0,0,4.480956141520432,-3.764002093014497,-12.815535639857785)"><path d="M6.20 10.37C5.99 9.76 5.59 9.37 5.05 9.17C5.36 8.96 5.59 8.69 5.77 8.34L6.85 6.26L6.76 6.15C6.36 6.13 6.01 6.12 5.54 6.12C4.96 6.12 4.58 6.38 4.31 6.92L3.58 8.32C3.47 8.53 3.39 8.57 3.19 8.57L2.97 8.57L2.97 4.17C2.97 3.19 2.65 2.86 1.78 2.86L0.94 2.86L0.84 2.95L0.84 13.16C1.15 13.22 1.53 13.24 1.89 13.24C2.27 13.24 2.66 13.22 2.97 13.16L2.97 10.37C3.09 10.36 3.23 10.36 3.40 10.36C3.79 10.36 4.02 10.49 4.21 11.09L4.63 12.29C4.87 13.01 5.12 13.27 5.75 13.27C6.31 13.27 6.87 12.98 7.22 12.59C6.83 12.31 6.71 11.89 6.55 11.40ZM13.99 9.66C13.99 8.44 13.72 7.53 12.98 6.79C12.39 6.22 11.62 5.96 10.75 5.96C9.87 5.96 9.10 6.22 8.53 6.79C7.78 7.53 7.52 8.44 7.52 9.66C7.52 10.89 7.78 11.80 8.53 12.54C9.10 13.12 9.87 13.37 10.75 13.37C11.62 13.37 12.39 13.12 12.98 12.54C13.72 11.80 13.99 10.89 13.99 9.66ZM9.76 9.66C9.76 8.51 9.88 7.60 10.75 7.60C11.61 7.60 11.73 8.51 11.73 9.66C11.73 10.82 11.61 11.73 10.75 11.73C9.88 11.73 9.76 10.82 9.76 9.66ZM14.83 7.18C15.05 7.35 15.36 7.81 15.36 8.64L15.36 13.16C15.68 13.22 16.09 13.24 16.45 13.24C16.83 13.24 17.23 13.22 17.54 13.16L17.54 8.81C17.84 8.34 18.19 8.09 18.69 8.09C18.93 8.12 19.17 8.15 19.40 8.23C19.77 7.63 19.95 6.71 19.95 6.19C19.67 6.13 19.45 6.08 19.03 6.08C18.12 6.08 17.58 6.61 17.28 7.34C16.95 6.59 16.38 6.13 15.48 6.06C15.22 6.27 14.91 6.80 14.83 7.18ZM20.24 9.67C20.24 11.80 21.06 13.30 22.76 13.30C23.34 13.30 23.90 13.09 24.36 12.75L24.36 13.22C24.36 14.07 23.97 14.63 22.95 14.63C22.32 14.63 21.64 14.48 21.04 14.21C20.73 14.57 20.51 15.27 20.51 15.79C21.24 16.07 22.26 16.25 23.14 16.25C24.26 16.25 25.21 15.93 25.77 15.23C26.21 14.67 26.49 13.85 26.49 11.89L26.49 8.19C26.49 7.74 26.64 7.35 26.88 7.18C26.82 6.79 26.49 6.27 26.21 6.06C25.63 6.08 25.20 6.29 24.89 6.62C24.47 6.26 23.87 5.96 23.04 5.96C21.52 5.96 20.24 7.28 20.24 9.67ZM24.36 8.16L24.36 11.06C24.04 11.38 23.67 11.54 23.31 11.54C22.83 11.54 22.48 10.99 22.48 9.69C22.48 8.39 22.75 7.59 23.44 7.59C23.70 7.59 24.04 7.76 24.36 8.06ZM36.47 6.27C36.76 5.96 36.89 5.68 36.89 5.36C36.89 4.89 36.65 4.44 36.46 4.09L31.40 4.09C31.25 4.44 31.22 4.83 31.22 5.10C31.22 5.28 31.23 5.59 31.36 5.92L33.05 5.92C33.32 5.92 34.09 5.84 34.41 5.75L34.47 5.84C34.24 6.02 33.78 6.44 33.52 6.71L32.23 8.04C32.34 8.51 32.68 9.04 33.04 9.21C33.28 9.10 33.53 9.04 33.80 9.04C34.47 9.04 35.03 9.48 35.03 10.26C35.03 11.09 34.47 11.62 33.61 11.62C32.90 11.62 32.28 11.31 31.81 10.93C31.36 11.28 30.98 11.83 30.90 12.35C31.53 12.92 32.61 13.37 33.89 13.37C35.70 13.37 37.27 12.26 37.27 10.35C37.27 8.82 36.30 7.90 34.99 7.71C35.13 7.60 35.27 7.49 35.39 7.36ZM38.57 13.13C38.89 13.22 39.34 13.24 39.70 13.24C40.04 13.24 40.36 13.23 40.68 13.17L40.89 9.28C40.95 8.29 41.01 6.97 41.01 6.05L41.10 6.05L42.48 11.75C42.81 11.80 43.34 11.83 43.62 11.83C43.93 11.83 44.45 11.80 44.79 11.75L46.17 6.05L46.26 6.05C46.27 6.97 46.33 8.29 46.37 9.28L46.59 13.17C46.91 13.23 47.22 13.24 47.56 13.24C47.92 13.24 48.38 13.22 48.71 13.13L47.96 3.61C47.49 3.53 46.86 3.50 46.45 3.50C46.03 3.50 45.50 3.53 45.04 3.61L44.20 7.04C44.13 7.38 43.81 8.88 43.68 9.58L43.58 9.58C43.47 8.88 43.13 7.38 43.06 7.04L42.24 3.61C41.76 3.53 41.23 3.50 40.82 3.50C40.40 3.50 39.77 3.53 39.31 3.61Z"></path></g><!----><!----></svg>